<svg id="visual" viewBox="0 0 960 540" width="960" height="540" xmlns="http://www.w3.org/2000/svg" xmlns:xlink="http://www.w3.org/1999/xlink" version="1.1"><rect x="0" y="0" width="960" height="540" fill="#FFFFFF"></rect><defs><linearGradient id="grad1_0" x1="43.8%" y1="0%" x2="100%" y2="100%"><stop offset="14.444444444444446%" stop-color="#039b9b" stop-opacity="1"></stop><stop offset="85.55555555555554%" stop-color="#039b9b" stop-opacity="1"></stop></linearGradient></defs><defs><linearGradient id="grad1_1" x1="43.8%" y1="0%" x2="100%" y2="100%"><stop offset="14.444444444444446%" stop-color="#039b9b" stop-opacity="1"></stop><stop offset="85.55555555555554%" stop-color="#63b4b3" stop-opacity="1"></stop></linearGradient></defs><defs><linearGradient id="grad1_2" x1="43.8%" y1="0%" x2="100%" y2="100%"><stop offset="14.444444444444446%" stop-color="#9acdcc" stop-opacity="1"></stop><stop offset="85.55555555555554%" stop-color="#63b4b3" stop-opacity="1"></stop></linearGradient></defs><defs><linearGradient id="grad1_3" x1="43.8%" y1="0%" x2="100%" y2="100%"><stop offset="14.444444444444446%" stop-color="#9acdcc" stop-opacity="1"></stop><stop offset="85.55555555555554%" stop-color="#cde6e5" stop-opacity="1"></stop></linearGradient></defs><defs><linearGradient id="grad1_4" x1="43.8%" y1="0%" x2="100%" y2="100%"><stop offset="14.444444444444446%" stop-color="#ffffff" stop-opacity="1"></stop><stop offset="85.55555555555554%" stop-color="#cde6e5" stop-opacity="1"></stop></linearGradient></defs><defs><linearGradient id="grad2_0" x1="0%" y1="0%" x2="56.3%" y2="100%"><stop offset="14.444444444444446%" stop-color="#039b9b" stop-opacity="1"></stop><stop offset="85.55555555555554%" stop-color="#039b9b" stop-opacity="1"></stop></linearGradient></defs><defs><linearGradient id="grad2_1" x1="0%" y1="0%" x2="56.3%" y2="100%"><stop offset="14.444444444444446%" stop-color="#63b4b3" stop-opacity="1"></stop><stop offset="85.55555555555554%" stop-color="#039b9b" stop-opacity="1"></stop></linearGradient></defs><defs><linearGradient id="grad2_2" x1="0%" y1="0%" x2="56.3%" y2="100%"><stop offset="14.444444444444446%" stop-color="#63b4b3" stop-opacity="1"></stop><stop offset="85.55555555555554%" stop-color="#9acdcc" stop-opacity="1"></stop></linearGradient></defs><defs><linearGradient id="grad2_3" x1="0%" y1="0%" x2="56.3%" y2="100%"><stop offset="14.444444444444446%" stop-color="#cde6e5" stop-opacity="1"></stop><stop offset="85.55555555555554%" stop-color="#9acdcc" stop-opacity="1"></stop></linearGradient></defs><defs><linearGradient id="grad2_4" x1="0%" y1="0%" x2="56.3%" y2="100%"><stop offset="14.444444444444446%" stop-color="#cde6e5" stop-opacity="1"></stop><stop offset="85.55555555555554%" stop-color="#ffffff" stop-opacity="1"></stop></linearGradient></defs><g transform="translate(960, 0)"><path d="M0 405C-37.8 363.5 -75.6 321.9 -127.8 308.6C-180.1 295.2 -246.7 310 -286.4 286.4C-326 262.8 -338.6 200.7 -353.8 146.6C-369.1 92.4 -387.1 46.2 -405 0L0 0Z" fill="#e6f2f2"></path><path d="M0 324C-30.2 290.8 -60.5 257.6 -102.3 246.9C-144 236.2 -197.4 248 -229.1 229.1C-260.8 210.2 -270.9 160.6 -283.1 117.3C-295.3 73.9 -309.6 37 -324 0L0 0Z" fill="#b4d9d8"></path><path d="M0 243C-22.7 218.1 -45.3 193.2 -76.7 185.1C-108 177.1 -148 186 -171.8 171.8C-195.6 157.7 -203.2 120.4 -212.3 87.9C-221.5 55.5 -232.2 27.7 -243 0L0 0Z" fill="#80c0bf"></path><path d="M0 162C-15.1 145.4 -30.2 128.8 -51.1 123.4C-72 118.1 -98.7 124 -114.6 114.6C-130.4 105.1 -135.4 80.3 -141.5 58.6C-147.6 37 -154.8 18.5 -162 0L0 0Z" fill="#42a7a7"></path><path d="M0 81C-7.6 72.7 -15.1 64.4 -25.6 61.7C-36 59 -49.3 62 -57.3 57.3C-65.2 52.6 -67.7 40.1 -70.8 29.3C-73.8 18.5 -77.4 9.2 -81 0L0 0Z" fill="#039b9b"></path></g><g transform="translate(0, 540)"><path d="M0 -405C53.5 -401 106.9 -397.1 155 -374.2C203 -351.3 245.7 -309.5 263 -263C280.4 -216.6 272.5 -165.5 291.9 -120.9C311.4 -76.3 358.2 -38.2 405 0L0 0Z" fill="#e6f2f2"></path><path d="M0 -324C42.8 -320.8 85.5 -317.6 124 -299.3C162.4 -281 196.5 -247.6 210.4 -210.4C224.3 -173.3 218 -132.4 233.6 -96.7C249.1 -61.1 286.6 -30.5 324 0L0 0Z" fill="#b4d9d8"></path><path d="M0 -243C32.1 -240.6 64.2 -238.2 93 -224.5C121.8 -210.8 147.4 -185.7 157.8 -157.8C168.2 -130 163.5 -99.3 175.2 -72.6C186.8 -45.8 214.9 -22.9 243 0L0 0Z" fill="#80c0bf"></path><path d="M0 -162C21.4 -160.4 42.8 -158.8 62 -149.7C81.2 -140.5 98.3 -123.8 105.2 -105.2C112.2 -86.6 109 -66.2 116.8 -48.4C124.6 -30.5 143.3 -15.3 162 0L0 0Z" fill="#42a7a7"></path><path d="M0 -81C10.7 -80.2 21.4 -79.4 31 -74.8C40.6 -70.3 49.1 -61.9 52.6 -52.6C56.1 -43.3 54.5 -33.1 58.4 -24.2C62.3 -15.3 71.6 -7.6 81 0L0 0Z" fill="#039b9b"></path></g></svg>